<?xml version="1.0" encoding="UTF-8"?>
<svg id="Layer_1" data-name="Layer 1" xmlns="http://www.w3.org/2000/svg" viewBox="0 0 1452.49045 1452.49489">
  <defs>
    <style>
      .cls-1 {
        fill: none;
        stroke: #c17f3a;
        stroke-miterlimit: 10;
        stroke-width: 7px;
      }
    </style>
  </defs>
  <g>
    <g>
      <polyline class="cls-1" points="496.45598 178.53416 423.11057 6.24771 726.24523 123.29758 1029.39306 6.24771 956.04766 178.53416"/>
      <path class="cls-1" d="M843.98009,299.2612c-.68535,1.173-1.3707,2.35919-2.02968,3.55855"/>
      <path class="cls-1" d="M841.02782,304.45404c-.69853,1.2389-1.38388,2.4778-2.06922,3.72989"/>
      <path class="cls-1" d="M838.81362,308.44753c-.80397,1.46296-1.59475,2.9391-2.38554,4.41524"/>
      <path class="cls-1" d="M828.65202,327.92728c-.84351,1.66066-1.66065,3.33449-2.4778,5.00833"/>
      <path class="cls-1" d="M801.31718,390.38639c-.56673,1.47614-1.13346,2.9391-1.68701,4.41524"/>
      <path class="cls-1" d="M797.25781,401.1543c-.65899,1.79245-1.31798,3.57173-1.96379,5.36418"/>
      <path class="cls-1" d="M795.26767,406.5712c-.61945,1.71338-1.22572,3.42675-1.83199,5.14013"/>
      <path class="cls-1" d="M789.57401,422.80872c-.61945,1.80563-1.22572,3.62445-1.83199,5.43008"/>
      <path class="cls-1" d="M780.47997,450.96079c-.9094,2.96546-1.79245,5.91773-2.66231,8.87001"/>
      <path class="cls-1" d="M775.85387,466.60522c-.48765,1.6343-.94894,3.26859-1.39706,4.88971-.51401,1.79245-1.01484,3.57173-1.48931,5.351-.50083,1.77927-.98848,3.55855-1.44977,5.32464"/>
      <path class="cls-1" d="M768.72362,492.75396c-.43493,1.67384-.85668,3.33449-1.27844,4.99515"/>
      <path class="cls-1" d="M767.32656,498.22358c-.42175,1.67384-.84351,3.34767-1.2389,5.00833-.43493,1.73973-.85668,3.46629-1.26526,5.19284-.83033,3.45311-1.63429,6.87986-2.39872,10.28025-.30313,1.33116-.60627,2.66232-.89622,3.9803"/>
      <path class="cls-1" d="M759.02331,534.28354c-.60627,2.8732-1.18618,5.73322-1.73973,8.56688"/>
      <path class="cls-1" d="M756.17648,548.51773c-.31631,1.60794-.61945,3.20269-.9094,4.79745-.30313,1.59476-.57991,3.17633-.85668,4.74473-.55355,3.0709-1.08074,6.08907-1.56839,9.06771"/>
      <path class="cls-1" d="M593.31409,274.5886c-.67217-1.01485-1.33116-2.00333-2.0165-3.005"/>
      <path class="cls-1" d="M598.75733,282.99732c-.64581-1.02803-1.3048-2.05605-1.95061-3.0709"/>
      <path class="cls-1" d="M604.26648,291.98595c-.69853-1.18618-1.41024-2.35919-2.12194-3.51901"/>
      <path class="cls-1" d="M612.24023,305.83792c-.61945-1.13346-1.25208-2.28011-1.89789-3.40039"/>
      <path class="cls-1" d="M637.22907,356.50111c-.48765-1.14664-1.00166-2.29329-1.51567-3.42675"/>
      <path class="cls-1" d="M638.15166,358.58352c1.35752,3.09725,2.68867,6.22087,4.00665,9.34448.69853,1.64748,1.38388,3.30813,2.06922,4.96879"/>
      <path class="cls-1" d="M644.25389,372.94951c.68535,1.66066,1.35752,3.33449,2.02968,5.02151.68535,1.67384,1.35752,3.36085,2.0165,5.04787.68535,1.68702,1.34434,3.37403,1.99014,5.06105.67217,1.68702,1.31798,3.38721,1.96379,5.08741,1.25208,3.26859,2.4778,6.55036,3.67716,9.84532"/>
      <path class="cls-1" d="M657.92131,408.49545c.61945,1.7002,1.22572,3.41357,1.81881,5.12695.61945,1.71338,1.21254,3.42675,1.79245,5.14013"/>
      <path class="cls-1" d="M663.29865,423.88947c.57991,1.71338,1.15982,3.43993,1.72655,5.1533,2.78093,8.34282,5.43006,16.69882,7.93422,25.0021"/>
      <path class="cls-1" d="M674.67279,459.81762c.51401,1.7002,1.01484,3.40039,1.48931,5.10059.50083,1.7002.98848,3.38721,1.46295,5.08741"/>
      <path class="cls-1" d="M680.43235,480.14089c.47447,1.68702.92258,3.36085,1.35752,5.03469.46129,1.67384.89622,3.34767,1.31798,5.00833"/>
      <path class="cls-1" d="M685.65154,500.14784c-.40857-1.64748-.83033-3.30813-1.25208-4.96879"/>
      <path class="cls-1" d="M686.86408,505.07708c.80397,3.28177,1.58157,6.55036,2.31964,9.77942.71171,3.005,1.38388,5.97045,2.02968,8.92273"/>
      <path class="cls-1" d="M695.31231,543.33807c-.56673-2.91274-1.173-5.86501-1.79245-8.84365"/>
      <polyline class="cls-1" points="1029.38133 6.24718 726.24201 259.62885 423.10269 6.24718"/>
      <polyline class="cls-1" points="726.2433 568.01098 726.24201 259.62885 726.24201 123.29635"/>
    </g>
    <path class="cls-1" d="M646.54699,589.52019c-2.06899,1.19892-4.1116,2.46478-6.11559,3.76924-.22395.13193-.42152.26385-.63196.40865-3.88829,2.53042-7.67104,5.23267-11.30834,8.10545-.29024-1.87143-.60622-3.74286-.93571-5.60142-6.07634-33.60851-12.78463-61.06215-23.92179-90.87439-6.39167-17.10737-13.58777-33.42446-21.52266-48.7788-7.42005-14.32661-15.61751-28.00709-25.81896-37.21944-23.5524-21.25952-56.77854-13.79954-77.45752,17.38409-3.29494,4.96881-6.68191,10.79419-11.08375,11.86183-7.34154,1.76589-12.48152-10.623-13.49639-22.04979-2.50403-27.91507,8.50121-56.09334,23.07746-74.46592,22.07611-7.65755,46.07706-4.50803,65.53009,10.63587,14.07622,10.96537,25.50298,27.13702,35.8621,44.06033,11.09726,18.10872,21.19317,37.35137,30.20792,57.50335,8.8307,19.7562,15.75008,38.60371,21.68098,58.34704v.01287c4.61292,15.34148,8.63249,31.2364,12.50726,48.50208,1.35788,6.06284,2.49116,12.20419,3.42687,18.39896Z"/>
    <path class="cls-1" d="M668.72864,578.80516c-.39514.1448-.7774.2896-1.17318.44791-.03926.01287-.09203.03926-.1448.05277-.71176.27672-1.41.57983-2.10889.88294-6.47083,2.68873-12.74473,5.8125-18.75478,9.33141-.93571-6.19477-2.06899-12.33612-3.42687-18.39896-3.87477-17.26568-7.89435-33.1606-12.50726-48.50208v-.01287c-5.9309-19.74333-12.85027-38.59084-21.68098-58.34704-9.01476-20.15198-19.11066-39.39463-30.20792-57.50335-10.35912-16.92331-21.78587-33.09496-35.8621-44.06033-19.45303-15.14391-43.45398-18.29342-65.53009-10.63587-14.82724,5.14-28.78441,15.16965-39.90805,29.70734-4.41535,5.75909-8.9356,12.52082-14.93278,13.69336-9.98972,1.95059-17.21285-12.65274-18.79404-26.04299-2.5967-21.83871,3.0047-43.70445,12.83676-62.16905,36.92973-25.04164,84.6015-25.64786,120.10707,1.06764,9.51608,7.15622,18.07005,15.92067,25.95153,25.60796.01287,0,.01287.01351.01287.02639,7.5655,9.27864,14.52413,19.37458,21.12753,29.69447,14.45784,22.57686,27.55846,46.47169,39.18342,71.43417,20.27033,43.4805,32.40884,83.21749,43.37418,131.67967.35588,1.59471.71176,3.20228,1.04125,4.8105.29024,1.39714.56696,2.79427.84369,4.20428.1847,1.002.38226,2.01687.55345,3.03174Z"/>
    <path class="cls-1" d="M998.24922,426.52561c-1.02774,11.42679-6.15485,23.81568-13.49639,22.04979-4.41471-1.06764-7.78881-6.89301-11.08375-11.86183-20.67898-31.18363-53.90512-38.64361-77.45752-17.38409-10.21432,9.21235-18.41242,22.89284-25.81896,37.21944-7.93425,15.35435-15.13099,31.67144-21.52266,48.7788-11.15003,29.81224-17.84546,57.26588-23.92179,90.87439-.34237,1.85856-.64547,3.74286-.93571,5.6278-3.65018-2.87343-7.42005-5.5879-11.32121-8.13184-.21108-.1448-.42152-.27672-.64547-.40865-2.00335-1.2916-4.03309-2.54329-6.08921-3.75637.17118-1.14615.35588-2.29295.53993-3.42688.31662-1.94994.65899-3.88766,1.01551-5.82537.22395-1.22531.46078-2.45126.71176-3.6637.36875-1.84504.75102-3.67722,1.15967-5.49588,3.86126-17.22642,7.86796-33.10783,12.48088-48.42292.01351-.03926.01351-.06564.02639-.09203,5.9309-19.74333,12.8374-38.59084,21.68098-58.34704,9.01476-20.15198,19.11066-39.39463,30.19441-57.50335,10.35976-16.92331,21.78652-33.09496,35.87561-44.06033,19.44016-15.14391,43.44046-18.29342,65.51657-10.63587,14.58977,18.37258,25.58214,46.56372,23.09098,74.46592Z"/>
    <path class="cls-1" d="M1048.80663,369.4174c-1.5947,13.39025-8.81719,27.99358-18.79404,26.04299-6.01005-1.17254-10.51743-7.93427-14.93278-13.69336-11.13652-14.53769-25.09433-24.56734-39.92157-29.70734-22.07611-7.65755-46.07642-4.50803-65.51657,10.63587-14.08909,10.96537-25.51585,27.13702-35.87561,44.06033-11.08375,18.10872-21.17966,37.35137-30.19441,57.50335-8.84357,19.7562-15.75008,38.60371-21.68098,58.34704-.01287.02639-.01287.05277-.02639.09203-4.61292,15.31509-8.61962,31.1965-12.48088,48.42292-.40865,1.81866-.79091,3.65083-1.15967,5.49588-.25098,1.21244-.48781,2.43839-.71176,3.6637-.35652,1.93771-.69889,3.87543-1.01551,5.82537-.18405,1.13393-.36875,2.28072-.53993,3.42688-6.01005-3.51891-12.28331-6.64267-18.7683-9.34428-.69824-.30311-1.41-.60622-2.12176-.85656-.05277-.0399-.10554-.06629-.1448-.07916-.38226-.15831-.76453-.30311-1.16031-.44791.72527-4.0331,1.54257-8.05333,2.4519-12.04652,10.95246-48.46218,23.10385-88.19917,43.37482-131.67967,11.62432-24.96248,24.71206-48.85732,39.16991-71.43417,6.60275-10.31989,13.56203-20.41583,21.12753-29.69447,7.89435-9.68729,16.44768-18.47812,25.96376-25.63434,35.51973-26.7155,83.19085-26.10928,120.12058-1.06764,9.81918,18.4646,15.42059,40.33034,12.83676,62.16905Z"/>
    <path class="cls-1" d="M1102.69888,309.69961c-1.81865,16.38273-11.17642,34.49145-24.60652,32.60715-8.09256-1.13393-14.30018-9.13384-20.363-15.9477-6.62914-7.44646-13.95717-13.82593-21.75949-19.11072-36.92973-25.04164-84.60085-25.64786-120.12058,1.06764-9.51608,7.15622-18.06941,15.94705-25.96376,25.63434-7.5655,9.27864-14.52477,19.37458-21.12753,29.69447-14.45784,22.57686-27.54559,46.47169-39.16991,71.43417-20.27097,43.4805-32.42236,83.21749-43.37482,131.67967-.90933,3.9932-1.72663,8.01343-2.4519,12.04652-9.92408-3.8883-20.34884-6.78812-31.13012-8.59326-.09203-.01351-.19757-.02639-.29024-.0399.17118-1.01487.32949-2.01623.50068-3.04461.50132-2.97833,1.01551-6.01007,1.56896-9.06755.27672-1.58119.56632-3.15015.85656-4.74486.30311-1.59471.5927-3.18941.90933-4.79699.35588-1.87207.72463-3.75637,1.10689-5.6677.55345-2.82066,1.13392-5.68057,1.74014-8.56688.79027-3.82202,1.63396-7.6968,2.50403-11.59797.28959-1.31798.5927-2.64948.89646-3.98033.7774-3.40049,1.58119-6.82737,2.39849-10.28064.42152-1.72663.83017-3.45262,1.26521-5.19277.40865-1.66035.8173-3.33421,1.23882-5.00807.0399-.15831.07916-.31662.11841-.47429.42216-1.66099.84369-3.32134,1.27872-4.9952.89646-3.50603,1.83217-7.03846,2.79427-10.58375.47429-1.76589.9621-3.54529,1.4499-5.32469.48716-1.7794.98848-3.57168,1.48916-5.35108.46078-1.63396.9222-3.25505,1.39649-4.88966.63325-2.2537,1.29224-4.50739,1.96409-6.77396.87007-2.95259,1.76588-5.90453,2.66234-8.86999,2.30646-7.56552,4.73133-15.14391,7.26239-22.7223.60622-1.80579,1.21244-3.62445,1.83152-5.43024,1.25234-3.7036,2.54393-7.40656,3.8619-11.0973.60622-1.71312,1.21244-3.42688,1.83217-5.14,0-.01287.01287-.02639.02574-.05277.64612-1.79227,1.30511-3.58455,1.96409-5.36395.7774-2.12241,1.56832-4.24418,2.3721-6.35308.55409-1.47565,1.12041-2.95194,1.68737-4.41536,3.05747-7.97353,6.26039-15.89428,9.5682-23.72365.51419-1.23882,1.04125-2.46414,1.56896-3.69009,4.37545-10.20084,8.94911-20.24401,13.7197-30.03683.8173-1.68673,1.64747-3.34772,2.47829-5.00807.60622-1.22595,1.21244-2.45191,1.84504-3.67722.61909-1.22595,1.23882-2.45126,1.88429-3.67722,1.31798-2.59671,2.67585-5.16638,4.0466-7.71032.79091-1.47629,1.58119-2.95194,2.38562-4.41536.03926-.07851.09203-.17118.1448-.26321.68537-1.23882,1.37075-2.49116,2.06899-3.72999.29024-.54058.60622-1.09403.92284-1.63461.65899-1.19892,1.34436-2.38562,2.02974-3.55816,1.48916-2.62309,3.01822-5.21915,4.56015-7.78947.5927-1.00136,1.19956-1.98984,1.80578-2.97833,1.06699-1.76653,2.14815-3.51891,3.25504-5.24554.71176-1.16031,1.4499-2.30647,2.18805-3.45326,1.97697-3.09738,3.99319-6.142,6.02292-9.12032.71176-1.04126,1.42352-2.06964,2.13528-3.08451.9222-1.31798,1.84504-2.63596,2.78075-3.94043,15.94765-22.26088,31.26269-44.8905,50.87403-61.74753,11.72986-10.08242,24.72558-18.28055,38.44528-23.36777,9.22584-3.41336,18.78117-5.43024,28.49481-5.65419,24.77771-.57983,49.34497,10.51746,70.07672,27.78314,29.41701,24.48819,52.82461,66.30769,48.07977,109.03653Z"/>
    <path class="cls-1" d="M700.13613,570.15913c-.10554.01287-.1847.03926-.29024.05277-10.78064,1.80514-21.19317,4.70496-31.11725,8.59326-.17118-1.01487-.36875-2.02974-.55345-3.03174-.27672-1.41001-.55345-2.80714-.84369-4.20428-.32949-1.60822-.68537-3.2158-1.04125-4.8105-10.96534-48.46218-23.10385-88.19917-43.37418-131.67967-11.62497-24.96248-24.72558-48.85732-39.18342-71.43417-6.6034-10.31989-13.56203-20.41583-21.12753-29.69447,0-.01287,0-.02639-.01287-.02639-7.88148-9.68729-16.43545-18.45173-25.95153-25.60796-35.50557-26.7155-83.17733-26.10928-120.10707-1.06764-7.81519,5.28479-15.14322,11.66426-21.773,19.11072-6.04931,6.81386-12.27044,14.81377-20.34948,15.9477-13.44298,1.8843-22.78787-16.22442-24.60652-32.60715-4.74485-42.72883,18.66276-84.54834,48.07977-109.03653,20.73175-17.26568,45.29902-28.36297,70.06385-27.78314,9.713.22395,19.26833,2.24082,28.50768,5.65419v.01351c13.72034,5.08723,26.72829,13.27184,38.44528,23.35426,19.59847,16.85703,34.91351,39.48665,50.87403,61.74753,1.85855,2.59606,3.70359,5.24554,5.52225,7.93427.68537,1.00136,1.35723,2.00336,2.01622,3.00471,1.17318,1.76653,2.34636,3.54529,3.49315,5.33821.65899,1.01487,1.30446,2.04261,1.95058,3.071,1.13328,1.80514,2.26656,3.62445,3.38697,5.46949.71176,1.15967,1.42352,2.33285,2.12241,3.51891.53993.89646,1.08051,1.80579,1.5947,2.7016.84304,1.39714,1.66034,2.80779,2.46413,4.2178.68537,1.17318,1.35788,2.34572,2.01686,3.53242.6326,1.11977,1.27808,2.2537,1.89781,3.39985.65899,1.16031,1.29159,2.33285,1.93707,3.50603.47493.85656.93571,1.71312,1.38426,2.58319,7.10407,13.19332,13.82524,26.97935,20.15192,41.14764.51419,1.13328,1.01487,2.28008,1.51554,3.42624.31662.68538.61909,1.38427.92284,2.08251,1.34372,3.09738,2.68872,6.22115,4.0067,9.34492.68473,1.66035,1.38362,3.30782,2.06899,4.96881,0,.02574.01287.03926.02639.05277.67186,1.67322,1.35723,3.34708,2.02974,5.02094.68537,1.67386,1.35723,3.36124,2.01622,5.04797.6725,1.68738,1.33149,3.37411,1.99048,5.06084.65899,1.68738,1.30446,3.38762,1.96345,5.08787,1.23882,3.26857,2.46477,6.56352,3.67721,9.84496.6725,1.8193,1.33149,3.65083,1.99048,5.48301.60622,1.70025,1.21244,3.41336,1.81865,5.12713.60622,1.71312,1.19956,3.42688,1.79227,5.14.59335,1.70025,1.18605,3.41336,1.76588,5.12713.57983,1.71312,1.14679,3.42688,1.72663,5.15287,2.76788,8.34292,5.41735,16.69871,7.93425,25.00238.57983,1.9242,1.14679,3.8484,1.71376,5.7726.50068,1.70025,1.00135,3.41401,1.48916,5.10074.50068,1.70025.98848,3.40049,1.46277,5.08723.9621,3.38762,1.89781,6.76109,2.80714,10.1352.46142,1.67386.90933,3.36124,1.35788,5.0351.44791,1.67386.88294,3.34772,1.31798,5.00807.43504,1.67386.86943,3.33421,1.29159,4.9952.42152,1.66099.83017,3.30847,1.25234,4.96881.40801,1.64748.81666,3.28208,1.21244,4.92956.79027,3.28144,1.56832,6.55,2.31933,9.77931.69889,2.99184,1.37075,5.97017,2.02974,8.92276.79091,3.61093,1.56832,7.18261,2.30646,10.71503.61909,2.96546,1.21244,5.9174,1.79227,8.8436.65899,3.36059,1.30511,6.68193,1.91132,9.97688.50068,2.72863.98848,5.43024,1.4499,8.1061.25034,1.47565.50068,2.93843.75102,4.40185.23747,1.44991.47429,2.89917.71176,4.33621Z"/>
  </g>
  <g>
    <g>
      <path class="cls-1" d="M760.09087,923.21968c-.61945-2.83366-1.21254-5.65414-1.77927-8.44826"/>
      <path class="cls-1" d="M765.63955,947.4178c-.39539-1.59476-.77761-3.18951-1.14664-4.77109"/>
      <path class="cls-1" d="M768.10417,957.31584c-.42175-1.66066-.84351-3.32131-1.25208-4.96879"/>
      <path class="cls-1" d="M806.83951,1076.06591c.46129,1.15982.93576,2.31965,1.42341,3.47947.68535,1.67384,1.38388,3.34767,2.0824,5.00833"/>
      <path class="cls-1" d="M832.89591,1132.9236c-.73807-1.42342-1.47613-2.84684-2.20102-4.28344"/>
      <path class="cls-1" d="M850.31956,1163.96205c-.48765-.79079-.96212-1.58158-1.44977-2.38555"/>
      <path class="cls-1" d="M855.6969,1172.56846c-.64581-1.01485-1.3048-2.04287-1.95061-3.0709"/>
      <path class="cls-1" d="M696.32715,903.97716c-.60627,3.21587-1.25208,6.45811-1.92425,9.75306"/>
      <path class="cls-1" d="M694.38973,913.79611c-.65899,3.25541-1.35752,6.55036-2.06922,9.87168-.35585,1.67384-.72489,3.36085-1.1071,5.04787"/>
      <path class="cls-1" d="M687.33855,945.48037c-.30313,1.25208-.60627,2.51734-.92258,3.7826"/>
      <path class="cls-1" d="M679.53613,975.66213c-.48765,1.77927-.98848,3.55855-1.48931,5.351"/>
      <path class="cls-1" d="M659.09431,1040.73084c-.61945,1.73973-1.2389,3.47947-1.87153,5.2192-.64581,1.80563-1.3048,3.59809-1.97697,5.40372"/>
      <path class="cls-1" d="M618.34247,1135.34869c-.64581,1.2389-1.3048,2.4778-1.95061,3.70353"/>
      <path class="cls-1" d="M613.0442,1145.22036c-.52719.94895-1.0412,1.88471-1.56839,2.82048"/>
      <path class="cls-1" d="M610.55322,1149.67514c-.72489,1.31798-1.47613,2.62278-2.22738,3.9144-.88304,1.55522-1.79245,3.09725-2.70185,4.63929"/>
      <polyline class="cls-1" points="956.04766 1273.96073 1029.39306 1446.24718 726.24523 1329.1973 423.11057 1446.24718 496.45598 1273.96073"/>
      <polyline class="cls-1" points="1029.38133 1446.24519 726.24201 1192.86352 423.10269 1446.24519"/>
      <line class="cls-1" x1="726.24201" y1="1329.1973" x2="726.2433" y2="884.48404"/>
    </g>
    <path class="cls-1" d="M646.54699,862.96131c-.01287.07916-.02639.17183-.03926.25034-.15831,1.06764-.32949,2.12241-.50068,3.17654-.31662,1.95059-.65899,3.8883-1.01487,5.82537-.2246,1.22595-.46142,2.45191-.71176,3.66435-.36939,1.84504-.75166,3.67722-1.16031,5.49588-3.87477,17.26568-7.89435,33.1606-12.50726,48.50144v.01351c-5.9309,19.74333-12.85027,38.59019-21.68098,58.34704-9.01476,20.15198-19.11066,39.39398-30.20792,57.50335-10.35912,16.92267-21.78587,33.09432-35.8621,44.06033-19.45303,15.14326-43.45398,18.29342-65.53009,10.63587-14.57626-18.37258-25.58149-46.55085-23.07746-74.46592,1.01487-11.42679,6.15485-23.81568,13.49639-22.04979,4.40184,1.06764,7.78881,6.89301,11.08375,11.86183,20.67898,31.18363,53.90512,38.64297,77.45752,17.38409,10.20145-9.21235,18.3989-22.89348,25.81896-37.21944,7.93489-15.35499,15.13099-31.67144,21.52266-48.7788,11.13716-29.81288,17.84546-57.26652,23.92179-90.87503.34237-1.85792.64547-3.72935.93571-5.61429,5.71981,4.49452,11.74274,8.60678,18.0559,12.28335Z"/>
    <path class="cls-1" d="M668.72864,873.68985c-.72463,4.04661-1.52842,8.0662-2.43839,12.04652-10.96534,48.46218-23.10385,88.19917-43.37418,131.67903-11.62497,24.96312-24.72558,48.85796-39.18342,71.43482-6.6034,10.31989-13.56203,20.41583-21.12753,29.69447,0,.01287,0,.02574-.01287.02574-7.88148,9.68729-16.43545,18.45173-25.95153,25.6086-35.50557,26.7155-83.17733,26.10928-120.10707,1.06764-9.83206-18.4646-15.43346-40.33034-12.83676-62.16905,1.58119-13.39089,8.80432-27.99422,18.79404-26.04364,5.99718,1.17318,10.51743,7.93427,14.93278,13.694,11.12365,14.53769,25.08081,24.56734,39.90805,29.70734,22.07611,7.65755,46.07706,4.50739,65.53009-10.63587,14.07622-10.96601,25.50298-27.13766,35.8621-44.06033,11.09726-18.10937,21.19317-37.35137,30.20792-57.50335,8.8307-19.75684,15.75008-38.60371,21.68098-58.34704v-.01351c4.61292-15.34083,8.63249-31.23576,12.50726-48.50144.40865-1.81866.79091-3.65083,1.16031-5.49588.25034-1.21244.48716-2.43839.71176-3.66435.35588-1.93707.69824-3.87479,1.01487-5.82537.17118-1.05413.34237-2.1089.50068-3.17654.01287-.07851.02639-.17118.03926-.25034,7.06418,4.13864,14.47136,7.7367,22.18165,10.72854Z"/>
    <path class="cls-1" d="M975.15824,1100.43532c-22.07611,7.65755-46.07642,4.50739-65.51657-10.63587-14.08909-10.96601-25.51585-27.13766-35.87561-44.06033-11.08375-18.10937-21.17966-37.35137-30.19441-57.50335-8.84357-19.75684-15.75008-38.60371-21.68098-58.34704-.01287-.02639-.01287-.05277-.02639-.09203-4.61292-15.31509-8.61962-31.19715-12.48088-48.42292-1.35788-6.06284-2.49116-12.21771-3.42687-18.41248,6.31316-3.69009,12.3496-7.80234,18.0559-12.29622.29024,1.8843.59335,3.76924.93571,5.62716,6.07634,33.60851,12.77176,61.06215,23.92179,90.87503,6.39167,17.10737,13.58842,33.42381,21.52266,48.7788,7.40654,14.32596,15.60464,28.00709,25.81896,37.21944,23.5524,21.25888,56.77854,13.79954,77.45752-17.38409,3.29494-4.96881,6.66904-10.79419,11.08375-11.86183,7.34154-1.76589,12.46865,10.623,13.49639,22.04979,2.49116,27.90155-8.50121,56.09334-23.09098,74.46592Z"/>
    <path class="cls-1" d="M1035.96987,1145.24667c-36.92973,25.04164-84.60085,25.64786-120.12058-1.06764-9.51608-7.15687-18.06941-15.9477-25.96376-25.63434-7.5655-9.27864-14.52477-19.37458-21.12753-29.69447-14.45784-22.57686-27.54559-46.47169-39.16991-71.43482-20.27097-43.47985-32.42236-83.21684-43.37482-131.67903-.27672-1.19957-.54058-2.39849-.79091-3.61158-.1448-.67186-.29024-1.35724-.43504-2.04261-.22395-1.1069-.44791-2.24082-.65899-3.36124-.15767-.7774-.30311-1.55481-.43504-2.34572-.05213-.22395-.09203-.44791-.13193-.67186,7.71029-3.00536,15.13099-6.60342,22.19517-10.74206.93571,6.19477,2.06899,12.34963,3.42687,18.41248,3.86126,17.22578,7.86796,33.10783,12.48088,48.42292.01351.03926.01351.06564.02639.09203,5.9309,19.74333,12.8374,38.59019,21.68098,58.34704,9.01476,20.15198,19.11066,39.39398,30.19441,57.50335,10.35976,16.92267,21.78652,33.09432,35.87561,44.06033,19.44016,15.14326,43.44046,18.29342,65.51657,10.63587,14.82724-5.14,28.78505-15.16965,39.92157-29.70734,4.41535-5.75973,8.92273-12.52082,14.93278-13.694,9.97685-1.95059,17.19934,12.65274,18.79404,26.04364,2.58383,21.83871-3.01757,43.70445-12.83676,62.16905Z"/>
    <path class="cls-1" d="M1054.61911,1251.83193c-20.73175,17.26568-45.29902,28.36297-70.07672,27.78314-9.71364-.22395-19.26897-2.24082-28.49481-5.65419-13.7197-5.08787-26.71541-13.28535-38.44528-23.36777-19.61134-16.85703-34.92638-39.48665-50.87403-61.74753-3.75636-5.24554-7.43293-10.67577-11.03162-16.27719-.65899-1.01487-1.30446-2.04261-1.95058-3.071-1.14615-1.81866-2.29294-3.67722-3.42687-5.53513-.48716-.79092-.97497-1.58183-1.44926-2.38562-.6725-1.10754-1.33149-2.22731-1.99048-3.34772-.90933-1.52906-1.80514-3.08451-2.70159-4.63932-.75102-1.2916-1.50267-2.59671-2.2273-3.91469-.31662-.53993-.61973-1.09338-.92284-1.63396-.59335-1.06764-1.18605-2.13528-1.7794-3.20293-1.00135-1.83217-2.00335-3.67722-2.99183-5.53513-.71176-1.30511-1.41-2.62309-2.09538-3.95394-.43504-.80443-.85656-1.60822-1.26521-2.42552-.73814-1.42352-1.47629-2.8464-2.20092-4.28344-7.20962-14.19468-13.99707-28.96919-20.34948-44.08607-.69889-1.66099-1.39713-3.33485-2.08251-5.00871-.48781-1.15967-.9621-2.31934-1.42352-3.47965-1.25169-3.05748-2.47764-6.12848-3.67721-9.19884-.61973-1.58183-1.23882-3.16367-1.84504-4.75837-1.38362-3.58455-2.74149-7.16974-4.05947-10.7678-.67186-1.79227-1.33085-3.59806-1.97697-5.39034-.65899-1.80579-1.30511-3.61158-1.93707-5.41736-.64612-1.80514-1.27872-3.61093-1.89845-5.41672-.61909-1.75302-1.21244-3.50539-1.81865-5.25841-3.71646-10.91324-7.20897-21.83935-10.46466-32.69918-.54058-1.80579-1.08051-3.61158-1.60821-5.40385-.57983-1.9641-1.14615-3.91469-1.70024-5.86527-.47429-1.63396-.93571-3.25505-1.39649-4.88966-.50068-1.77876-1.002-3.57168-1.48916-5.35108-.48781-1.77876-.97561-3.55816-1.4499-5.32405-.47493-1.72663-.92284-3.44039-1.38426-5.15351-.68537-2.63596-1.37075-5.24554-2.02974-7.85511-.42152-1.66099-.84304-3.32134-1.25169-4.96881s-.8173-3.29495-1.21308-4.92956c-.39514-1.59471-.7774-3.18941-1.14615-4.7706-1.56832-6.56416-3.03173-13.04852-4.40248-19.42735-.61909-2.84704-1.19892-5.65419-1.77875-8.44846-1.97697-9.67377-3.72998-19.05795-5.24552-28.09912-.23747-1.44991-.47493-2.89982-.71176-4.33621,10.88618-1.80579,21.39074-4.71847,31.40685-8.63252.0399.22395.0798.44791.13193.67186.13193.79092.27737,1.56832.43504,2.34572.21108,1.12041.43504,2.25434.65899,3.36124.1448.68538.29024,1.37075.43504,2.04261.25034,1.21308.51419,2.41201.79091,3.61158,10.95246,48.46218,23.10385,88.19917,43.37482,131.67903,11.62432,24.96312,24.71206,48.85796,39.16991,71.43482,6.60275,10.31989,13.56203,20.41583,21.12753,29.69447,7.89435,9.68664,16.44768,18.47747,25.96376,25.63434,35.51973,26.7155,83.19085,26.10928,120.12058,1.06764,7.80232-5.28479,15.13035-11.66426,21.75949-19.11072,6.06282-6.81386,12.27044-14.81441,20.363-15.9477,13.43011-1.8843,22.78787,16.22442,24.60652,32.60715,4.74485,42.72883-18.66276,84.54834-48.07977,109.03653Z"/>
    <path class="cls-1" d="M700.14965,882.32237c-.51419,3.13728-1.04125,6.32669-1.60821,9.55536-.21108,1.19957-.42152,2.41201-.64612,3.62445-.50068,2.79427-1.02774,5.62845-1.56832,8.47485-.61909,3.2158-1.25169,6.47149-1.92419,9.75293,0,.01351-.01287.0399-.01287.06629-.65899,3.25505-1.35788,6.55-2.06964,9.87134-.35588,1.67386-.72463,3.36124-1.10689,5.04797-1.22595,5.50939-2.51754,11.11081-3.87477,16.765-.30311,1.2517-.60622,2.51691-.92284,3.78212-.25034,1.02839-.50068,2.05613-.76389,3.08451-.40929,1.64748-.83081,3.29495-1.25234,4.9553-1.54193,6.06284-3.16302,12.19132-4.86326,18.3597-.48781,1.7794-.98848,3.57168-1.4898,5.35108-3.95393,14.0235-8.29013,28.23105-13.02146,42.4386-.56632,1.71376-1.14679,3.42688-1.72663,5.14064-1.3701,4.04597-2.76788,8.09194-4.20427,12.13855-.61909,1.7395-1.23882,3.47901-1.87142,5.21915-.64612,1.80579-1.30511,3.61093-1.97697,5.40321-.35588.97561-.72463,1.93771-1.08051,2.91333-.6326,1.68673-1.26521,3.37411-1.91132,5.06084-2.13528,5.60142-4.3362,11.18932-6.58988,16.73797-.46142,1.16031-.93571,2.31998-1.42352,3.47965-.68537,1.67386-1.38362,3.34772-2.08186,5.00871-4.1914,9.97688-8.58036,19.82248-13.15403,29.44349-.76453,1.59471-1.52842,3.20293-2.30646,4.78412-.75102,1.56832-1.51554,3.12377-2.29294,4.67922-.84369,1.6996-1.68673,3.38698-2.54393,5.07371-.73814,1.46342-1.48916,2.9262-2.25369,4.38898-.40865.80379-.83017,1.62109-1.26521,2.42552-.64612,1.23882-1.30511,2.47765-1.95058,3.70296-1.10689,2.06964-2.2273,4.12577-3.34771,6.16838-.51419.94923-1.04125,1.88494-1.56832,2.82066-.30311.54058-.60622,1.09403-.92284,1.63396-.72463,1.31798-1.47564,2.62309-2.2273,3.91469-.89581,1.55481-1.79227,3.11025-2.70159,4.63932-.55345.93571-1.10754,1.87143-1.66099,2.79427-.5927,1.00136-1.19892,1.98984-1.80514,2.97833-1.06764,1.76589-2.14879,3.51891-3.25569,5.24554-.71176,1.15967-1.4499,2.30647-2.18805,3.45326-1.97697,3.09738-3.99319,6.142-6.02292,9.12032-.71176,1.04126-1.42352,2.069-2.13528,3.08387-.9222,1.31798-1.84504,2.63596-2.78075,3.94107-15.96052,22.26088-31.27556,44.8905-50.87403,61.74753-11.71699,10.08242-24.72494,18.26703-38.44528,23.35426v.01351c-9.23935,3.41336-18.79468,5.43024-28.50768,5.65419-24.76484.57983-49.3321-10.51746-70.06385-27.78314-29.41701-24.48819-52.82461-66.30769-48.07977-109.03653,1.81865-16.38273,11.16355-34.49145,24.60652-32.60715,8.07904,1.13328,14.30018,9.13384,20.34948,15.9477,6.62978,7.44646,13.95781,13.82593,21.773,19.11072,36.92973,25.04164,84.6015,25.64786,120.10707-1.06764,9.51608-7.15687,18.07005-15.92131,25.95153-25.6086.01287,0,.01287-.01287.01287-.02574,7.5655-9.27864,14.52413-19.37458,21.12753-29.69447,14.45784-22.57686,27.55846-46.47169,39.18342-71.43482,20.27033-43.47985,32.40884-83.21684,43.37418-131.67903.90997-3.98033,1.71376-7.99991,2.43839-12.04652,10.01675,3.92756,20.53418,6.84024,31.421,8.63252Z"/>
  </g>
  <g>
    <g>
      <polyline class="cls-1" points="178.53362 956.0374 6.24769 1029.38303 123.29721 726.24744 6.24769 423.09868 178.53362 496.44431"/>
      <path class="cls-1" d="M290.9175,603.62251c1.1071.67217,2.22738,1.33116,3.34766,1.99015,1.52885.90941,3.08407,1.81881,4.63928,2.70186,1.29162.76443,2.59641,1.5025,3.91439,2.22739"/>
      <path class="cls-1" d="M307.6558,613.24377c-1.06756-.57991-2.13512-1.173-3.20268-1.77927"/>
      <path class="cls-1" d="M317.73832,618.64749c-1.52885-.79079-3.04453-1.59476-4.54702-2.4119"/>
      <path class="cls-1" d="M331.6298,625.67233c-1.2389-.59309-2.4778-1.21254-3.70351-1.83199"/>
      <path class="cls-1" d="M341.71232,630.50932c-1.25208-.57991-2.49098-1.15982-3.72987-1.76609"/>
      <path class="cls-1" d="M390.3852,651.17526c-1.59475-.60627-3.17632-1.22572-4.7579-1.84517"/>
      <path class="cls-1" d="M401.15307,655.23464c1.79245.67217,3.5849,1.33116,5.39053,1.97697,1.80563.65899,3.61126,1.3048,5.41688,1.93743,1.79245.64581,3.61126,1.27844,5.41688,1.89789,1.81881.64581,3.62444,1.26526,5.43006,1.87153"/>
      <path class="cls-1" d="M444.44861,669.99602c-3.5849-1.12028-7.18297-2.26693-10.78105-3.45311"/>
      <path class="cls-1" d="M460.7388,674.93845c-1.80563-.51401-3.59808-1.05438-5.4037-1.60794"/>
      <path class="cls-1" d="M466.11615,676.50685c7.16979,2.06923,14.30005,4.03302,21.3644,5.89137,1.76609.47447,3.519.92259,5.27191,1.3707"/>
      <path class="cls-1" d="M518.28167,689.97661c-2.75457-.63263-5.52232-1.27844-8.31643-1.93743"/>
      <path class="cls-1" d="M543.32323,695.31443c-2.30646-.46129-4.61292-.92259-6.94574-1.41024"/>
      <path class="cls-1" d="M562.73703,698.89934c-1.26526-.21088-2.53052-.43493-3.80895-.67217"/>
      <path class="cls-1" d="M270.67337,861.80177c-1.0412.71171-2.05604,1.42342-3.08407,2.13513"/>
      <path class="cls-1" d="M283.24687,853.59075c-1.15982.71171-2.30646,1.44978-3.4531,2.18785"/>
      <path class="cls-1" d="M291.47105,848.5297c-1.00166.59309-1.99014,1.19936-2.97863,1.80563"/>
      <path class="cls-1" d="M323.95918,830.63152c-1.47613.73807-2.93909,1.48932-4.38886,2.25375"/>
      <path class="cls-1" d="M329.03339,828.08782c1.55521-.77761,3.11043-1.54204,4.67882-2.29329,1.58157-.77761,3.17632-1.54204,4.78426-2.30647"/>
      <path class="cls-1" d="M367.94006,810.33462c1.66065-.69853,3.33448-1.39706,5.00831-2.08241,1.15982-.48765,2.31964-.96213,3.47946-1.42342"/>
      <path class="cls-1" d="M398.22717,798.32781c-1.68701.63263-3.37402,1.26526-5.06103,1.91107"/>
      <path class="cls-1" d="M429.04146,787.46765c-1.71337.56673-3.42674,1.13346-5.14011,1.72655"/>
      <path class="cls-1" d="M500.14631,766.84125c-1.64747.40857-3.29494.81715-4.95559,1.25208"/>
      <path class="cls-1" d="M560.61508,753.9514c-1.19936.21088-2.4119.42175-3.62444.64581"/>
      <polyline class="cls-1" points="6.24276 423.10992 259.62365 726.25017 6.24276 1029.39042"/>
      <polyline class="cls-1" points="568.00896 726.24888 259.62365 726.25017 123.29157 726.25017"/>
    </g>
    <path class="cls-1" d="M601.81494,824.00172c-1.88429.29024-3.75636.59335-5.61427.93636-33.60841,6.07571-61.06197,12.78403-90.87476,23.92122-17.10731,6.39234-33.42371,13.58846-48.77801,21.52273-14.32656,7.42008-28.00701,15.61756-37.21997,25.81904-21.25881,23.55247-13.79886,56.77872,17.38404,77.45776,4.9688,3.29495,10.79415,6.68193,11.86179,11.08442,1.76653,7.34092-10.62297,12.48092-22.04973,13.49579-27.91434,2.50403-56.09317-8.50123-74.46569-23.07754-7.65752-22.07618-4.50738-46.07656,10.63648-65.53029,10.96534-14.07627,27.13694-25.50306,44.05955-35.86221,18.10931-11.0973,37.35126-21.19323,57.50317-30.20802,19.75678-8.83073,38.60359-15.75013,58.34686-21.68104h.01351c15.34079-4.61293,31.23631-8.63252,48.50129-12.5073,6.06282-1.35788,12.21767-2.49116,18.41242-3.42688,3.67721,6.31318,7.78881,12.33612,12.28331,18.05595Z"/>
    <path class="cls-1" d="M589.53162,805.94577c-6.19475.93571-12.3496,2.069-18.41242,3.42688-17.26498,3.87479-33.1605,7.89437-48.50129,12.5073h-.01351c-19.74327,5.93091-38.59008,12.85031-58.34686,21.68104-20.15192,9.01478-39.39386,19.11072-57.50317,30.20802-16.92262,10.35915-33.09422,21.78594-44.05955,35.86221-15.14386,19.45373-18.29401,43.45411-10.63648,65.53029,5.13998,14.82728,15.17025,28.78449,29.70725,39.90818,5.75971,4.41536,12.52078,8.93563,13.69396,14.93283,1.95058,9.9904-12.65271,17.21291-26.04356,18.7941-21.83864,2.59671-43.70367-3.00471-62.16886-12.8368-25.04156-36.92985-25.64778-84.60111,1.06764-120.10744,7.15685-9.5161,15.92126-18.06947,25.60852-25.95161,0-.01287.01287-.01287.02639-.01287,9.27796-7.56552,19.37387-14.52417,29.69373-21.12695,22.57679-14.45853,46.47155-27.55918,71.4346-39.18354,43.47972-20.27103,83.21659-32.40959,131.67862-43.37495,1.59534-.35588,3.20292-.71176,4.81049-1.04126,1.39778-.29024,2.79427-.56696,4.20491-.84369,1.00135-.1847,2.01622-.38227,3.03109-.55345,2.99183,7.71032,6.58988,15.11752,10.72851,22.18172Z"/>
    <path class="cls-1" d="M601.82845,628.47978c-4.50802,5.71983-8.61962,11.74277-12.29683,18.05595-1.14679-.17118-2.29359-.35588-3.42687-.53993-1.95058-.31662-3.88829-.65899-5.82535-1.01487-1.22595-.2246-2.4519-.46142-3.66434-.71176-1.84504-.3694-3.67721-.75166-5.49586-1.16031-17.22572-3.86127-33.10773-7.86799-48.42213-12.48092-.0399-.01287-.06628-.01287-.09267-.02639-19.74327-5.93091-38.59008-12.8368-58.34686-21.68104-20.15192-9.01478-39.39386-19.11072-57.50317-30.1945-16.92262-10.35979-33.09422-21.78658-44.05955-35.87572-15.14386-19.44022-18.29401-43.4406-10.63648-65.51677,18.37252-14.58982,46.56422-25.58221,74.46569-23.09105,11.42676,1.02839,23.81625,6.15487,22.04973,13.49643-1.06764,4.41472-6.89299,7.78883-11.86179,11.08378-31.18289,20.67904-38.64285,53.90529-17.38404,77.45776,9.21297,10.21435,22.89341,18.41248,37.21997,25.81968,15.3543,7.93427,31.6707,15.13039,48.77801,21.52209,29.81279,11.15007,57.26635,17.84551,90.87476,23.92187,1.85791.34237,3.74285.64548,5.62779.93571Z"/>
    <path class="cls-1" d="M589.53162,646.53573c-4.13863,7.06484-7.73668,14.48492-10.7549,22.19523-4.03309-.72528-8.03979-1.54193-12.0201-2.45191-48.46203-10.95185-88.1989-23.10392-131.67862-43.37431-24.96305-11.625-48.85781-24.71214-71.4346-39.17067-10.31986-6.60277-20.41577-13.56207-29.69373-21.12695-9.68726-7.89501-18.47806-16.44837-25.63491-25.96448-26.71541-35.5192-26.1092-83.1911-1.06764-120.12095,18.46519-9.81857,40.33022-15.41999,62.16886-12.8368,13.39085,1.59471,27.99414,8.81721,26.04356,18.7941-1.17318,6.01007-7.93425,10.51746-13.69396,14.93283-14.537,11.1372-24.56727,25.09441-29.70725,39.92169-7.65752,22.07618-4.50738,46.07656,10.63648,65.51677,10.96534,14.08914,27.13694,25.51593,44.05955,35.87572,18.10931,11.08378,37.35126,21.17972,57.50317,30.1945,19.75678,8.84424,38.60359,15.75013,58.34686,21.68104.02639.01351.05277.01351.09267.02639,15.3144,4.61293,31.19641,8.61965,48.42213,12.48092,1.81865.40865,3.65082.79092,5.49586,1.16031,1.21244.25034,2.43839.48716,3.66434.71176,1.93707.35588,3.87477.69825,5.82535,1.01487,1.13328.18405,2.28007.36875,3.42687.53993Z"/>
    <path class="cls-1" d="M578.77673,668.73097c-3.90116,10.01614-6.81384,20.52073-8.63249,31.40759-1.39713-.2246-2.80778-.46142-4.23065-.69889-1.05477-.17118-2.10889-.35588-3.17653-.54058-1.26521-.21044-2.53041-.43504-3.80913-.67186-5.10072-.89646-10.30635-1.87143-15.60464-2.91269-2.29359-.46142-4.61292-.92284-6.94576-1.41065-2.34572-.48716-4.73133-.98849-7.11695-1.50203-3.62444-.77805-7.28877-1.58183-10.97885-2.42552-2.75437-.63261-5.52225-1.27808-8.31651-1.93707-5.66704-1.35788-11.41388-2.76789-17.21285-4.27057-1.75301-.44791-3.50602-.90933-5.27191-1.37075-7.06418-1.85792-14.19464-3.82202-21.36435-5.89101-1.79227-.51419-3.58454-1.02839-5.37745-1.56832-1.79227-.52771-3.59805-1.06764-5.40319-1.60822-3.62444-1.08051-7.24887-2.18741-10.88682-3.33421-3.59805-1.13393-7.18323-2.28008-10.78128-3.45326-3.62444-1.18605-7.24887-2.38562-10.85979-3.62445-1.80578-.61973-3.62444-1.23882-5.43022-1.87143-1.80578-.61973-3.61092-1.25234-5.4167-1.89782-1.80578-.63261-3.61157-1.27872-5.41735-1.93771-1.79227-.64548-3.59741-1.30447-5.39032-1.97697-3.59805-1.31798-7.1961-2.67522-10.76777-4.05948-1.5947-.60622-3.17653-1.22531-4.75772-1.84504-14.94629-5.85176-29.65448-12.12504-43.9154-18.82048-1.25169-.58048-2.49051-1.17318-3.72933-1.76653-2.12241-1.00136-4.24417-2.02974-6.35306-3.07035-1.23882-.60686-2.47764-1.21308-3.70359-1.83217-3.42687-1.70025-6.82671-3.42688-10.18793-5.19277-1.52906-.79092-3.0446-1.59471-4.54663-2.41201-1.85855-.97561-3.70359-1.97697-5.53576-2.99184l-3.20292-1.7794c-.53993-.2896-1.09402-.60622-1.63396-.92284-1.31798-.72463-2.62308-1.47565-3.91467-2.22731-1.5548-.89582-3.11024-1.79227-4.6393-2.7016-1.12041-.65899-2.24017-1.31798-3.34707-1.99049-.80443-.47429-1.59534-.9621-2.38626-1.44926-1.85791-1.13393-3.70295-2.26721-5.53512-3.42688-1.02774-.64612-2.05612-1.2916-3.07099-1.95059-5.6014-3.59806-11.03162-7.27528-16.27714-11.03165-22.26016-15.9477-44.88972-31.26214-61.7467-50.87419-10.08304-11.7299-18.28049-24.72501-23.36835-38.4454-3.41335-9.22587-5.42958-18.78123-5.65417-28.4949-.57919-24.77778,10.51807-49.34512,27.78305-70.07694,24.48811-29.4171,66.30749-52.82477,109.03684-48.07991,16.38204,1.81866,34.49135,11.17645,32.60641,24.6066-1.13328,8.09258-9.13381,14.30022-15.94765,20.36306-7.44644,6.62916-13.82524,13.95721-19.11066,21.75955-25.04156,36.92985-25.64778,84.60175,1.06764,120.12095,7.15685,9.5161,15.94765,18.06947,25.63491,25.96448,9.27796,7.56488,19.37387,14.52417,29.69373,21.12695,22.57679,14.45853,46.47155,27.54567,71.4346,39.17067,43.47972,20.27039,83.21659,32.42246,131.67862,43.37431,3.98032.90997,7.98702,1.72663,12.0201,2.45191Z"/>
    <g>
      <path class="cls-1" d="M578.80311,783.76405c-1.01487.17118-2.02974.36875-3.03109.55345-1.41065.27672-2.80714.55345-4.20491.84369-1.60757.3295-3.21514.68538-4.81049,1.04126-48.46203,10.96537-88.1989,23.10392-131.67862,43.37495-24.96305,11.62436-48.85781,24.72501-71.4346,39.18354-10.31986,6.60277-20.41577,13.56143-29.69373,21.12695-.01351,0-.02639,0-.02639.01287-9.68726,7.88214-18.45167,16.4355-25.60852,25.95161-26.71541,35.50633-26.1092,83.17759-1.06764,120.10744,5.28542,7.81521,11.66422,15.14326,19.11066,21.77307,6.81384,6.04933,14.81437,12.27048,15.94765,20.34955,1.88494,13.44366-16.22437,22.78794-32.60641,24.6066-42.72935,4.74486-84.54872-18.66281-109.03684-48.07991-17.26498-20.73181-28.36224-45.29915-27.78305-70.06407.2246-9.71303,2.24082-19.26839,5.65417-28.50777h.01351c5.08721-13.71974,13.27179-26.72837,23.35483-38.4454,16.85697-19.59853,39.48653-34.91298,61.7467-50.87419,1.30511-.93571,2.60957-1.85856,3.94106-2.78076,1.01487-.71176,2.04261-1.42352,3.08386-2.13528,2.97896-2.02974,6.02357-4.0331,9.1203-6.02294,1.14679-.73815,2.29359-1.47629,3.45325-2.18805,1.72663-1.1069,3.47964-2.18805,5.24552-3.25505.98848-.60622,1.97697-1.21308,2.97896-1.80579.9222-.56696,1.85791-1.12041,2.79362-1.66099,1.52906-.90933,3.0845-1.80514,4.6393-2.7016,1.29159-.75102,2.5967-1.50268,3.91467-2.22731.53993-.31662,1.08051-.61973,1.63396-.92284.93571-.52706,1.87142-1.05413,2.82065-1.56832,2.04325-1.12041,4.09873-2.24018,6.16836-3.34772,1.22531-.64548,2.46477-1.30447,3.70359-1.95059.80379-.43504,1.62109-.85656,2.42487-1.26521,1.46277-.76453,2.92619-1.51555,4.38897-2.2537,1.68673-.85656,3.3741-1.71312,5.07434-2.54393,1.5548-.7774,3.11024-1.54193,4.67856-2.29295,1.58183-.7774,3.1894-1.54193,4.7841-2.30647,9.62162-4.57368,19.46654-8.96266,29.4434-13.15342,1.66099-.69889,3.33484-1.39714,5.0087-2.08251,1.15967-.48781,2.31997-.9621,3.47964-1.42352,5.54863-2.2537,11.13652-4.45462,16.73792-6.5899,1.68737-.64548,3.3741-1.27872,5.06147-1.91069.97497-.35652,1.95058-.72528,2.91268-1.08116,1.79227-.67186,3.59805-1.33085,5.40319-1.97697,1.74014-.63261,3.47964-1.25234,5.21914-1.87143,4.0466-1.43639,8.09256-2.83353,12.13916-4.20428,1.71311-.57983,3.42687-1.15967,5.13998-1.72663,14.20751-4.73135,28.41566-9.06755,42.43911-13.0215,1.77875-.50068,3.57167-1.002,5.35042-1.48916,6.16836-1.70025,12.28396-3.32198,18.35965-4.86392,1.66099-.42152,3.30846-.84304,4.95593-1.2517,1.04061-.26385,2.06899-.51419,3.08386-.76453,1.26521-.31662,2.53041-.61973,3.78275-.92284,5.65417-1.35724,11.25557-2.64883,16.7643-3.87479,1.68737-.38227,3.3741-.75102,5.04795-1.1069,3.32133-.71176,6.61627-1.41065,9.87195-2.06964.02574,0,.05213-.01287.06564-.01287,3.28143-.67186,6.53711-1.30511,9.7529-1.9242,2.85991-.54058,5.68056-1.06764,8.47482-1.56832,1.21244-.22395,2.42487-.43504,3.62444-.64612,3.22866-.56632,6.4187-1.1069,9.55533-1.60758,1.79227,10.88621,4.70495,21.40367,8.63249,31.42046Z"/>
      <path class="cls-1" d="M538.76313,758.08981c3.29494-.67186,6.53711-1.31798,9.7529-1.9242-3.21579.61909-6.47147,1.25234-9.7529,1.9242Z"/>
    </g>
  </g>
  <g>
    <g>
      <path class="cls-1" d="M913.72742,758.08986c-3.29494-.67217-6.53716-1.31798-9.75303-1.92425"/>
      <path class="cls-1" d="M913.79332,758.10304c3.2554.65899,6.55034,1.35752,9.87165,2.06923,1.67383.35585,3.36084.72489,5.04785,1.1071"/>
      <path class="cls-1" d="M949.26008,766.07682c-1.26526-.31632-2.53052-.61945-3.78259-.92259"/>
      <path class="cls-1" d="M981.01014,774.446c-1.79245-.50083-3.57172-1.00167-5.35099-1.48932"/>
      <path class="cls-1" d="M1040.72766,793.39857c1.73973.61945,3.47946,1.2389,5.21919,1.87153,1.80563.64581,3.59808,1.3048,5.4037,1.97697"/>
      <path class="cls-1" d="M1139.04873,836.10114c-1.22572-.64581-2.46462-1.3048-3.70351-1.95061"/>
      <path class="cls-1" d="M1148.03733,841.01721c-.93576-.52719-1.87153-1.0412-2.82047-1.5684"/>
      <path class="cls-1" d="M1149.67162,841.9398c1.31798.72489,2.62277,1.47614,3.91439,2.22739,1.55521.88305,3.09725,1.79245,4.63928,2.70186"/>
      <polyline class="cls-1" points="1273.95683 956.0374 1446.24276 1029.38303 1329.19324 726.24744 1446.24276 423.09868 1273.95683 496.44431"/>
      <polyline class="cls-1" points="1446.23636 423.10992 1192.85546 726.25017 1446.23636 1029.39042"/>
      <polyline class="cls-1" points="884.46818 726.24888 1192.85546 726.25017 1329.18755 726.25262"/>
    </g>
    <path class="cls-1" d="M1100.43232,975.1615c-18.37316,14.5763-46.55135,25.58157-74.46569,23.07754-11.4274-1.01487-23.81625-6.15487-22.05037-13.49579,1.06764-4.40249,6.89364-7.78947,11.86179-11.08442,31.18354-20.67904,38.64349-53.90529,17.38468-77.45776-9.21297-10.20148-22.89341-18.39896-37.21997-25.81904-15.3543-7.93427-31.6707-15.13039-48.77801-21.52273-29.81279-11.1372-57.26635-17.84551-90.87476-23.92122-1.85855-.34301-3.72998-.64612-5.61427-.93636,4.49386-5.71983,8.60611-11.74277,12.2698-18.05595.02639,0,.06628.01287.09267.01287,1.29159.19821,2.58318.39578,3.86126.61973.30375.03926.59335.09203.89646.1448,1.47629.25034,2.95193.50132,4.41535.77805,1.22531.22395,2.45126.46078,3.66369.71176,1.83217.36875,3.67721.75102,5.4965,1.15967,17.26498,3.87479,33.15986,7.89437,48.50129,12.5073h.01287c19.74327,5.93091,38.59072,12.85031,58.34686,21.68104,20.15192,9.01478,39.39451,19.11072,57.50382,30.20802,16.92262,10.35915,33.09422,21.78594,44.05955,35.86221,15.14386,19.45373,18.29336,43.45411,10.63648,65.53029Z"/>
    <path class="cls-1" d="M1145.24353,1035.95981c-18.46519,9.83209-40.33022,15.4335-62.1695,12.8368-13.39021-1.58119-27.99349-8.8037-26.04291-18.7941,1.17318-5.9972,7.93425-10.51746,13.69396-14.93283,14.537-11.12368,24.56662-25.08089,29.70725-39.90818,7.65688-22.07618,4.50738-46.07656-10.63648-65.53029-10.96534-14.07627-27.13694-25.50306-44.05955-35.86221-18.10931-11.0973-37.3519-21.19323-57.50382-30.20802-19.75614-8.83073-38.60359-15.75013-58.34686-21.68104h-.01287c-15.34143-4.61293-31.23631-8.63252-48.50129-12.5073-1.8193-.40865-3.66434-.79092-5.4965-1.15967-1.21244-.25098-2.43839-.48781-3.66369-.71176-1.46342-.27672-2.93906-.52771-4.41535-.77805-.30311-.05277-.5927-.10554-.89646-.1448-1.27808-.22395-2.56967-.42152-3.86126-.61973-.02639,0-.06628-.01287-.09267-.01287,4.13863-7.0642,7.73668-14.4714,10.74203-22.18172,4.04596.72528,8.06553,1.52906,12.04584,2.43839,48.46203,10.96537,88.1989,23.10392,131.67927,43.37495,24.9624,11.62436,48.85717,24.72501,71.4346,39.18354,10.31986,6.60277,20.41513,13.56143,29.69373,21.12695.01351,0,.02639,0,.02639.01287,9.68726,7.88214,18.45167,16.4355,25.60852,25.95161,26.71541,35.50633,26.1092,83.17759,1.06764,120.10744Z"/>
    <path class="cls-1" d="M1089.79584,542.85028c-10.96534,14.08914-27.13694,25.51593-44.05955,35.87572-18.10931,11.08378-37.3519,21.17972-57.50382,30.1945-19.75614,8.84424-38.60359,15.75013-58.34686,21.68104-.02639.01351-.05277.01351-.09203.02639-15.31504,4.61293-31.19641,8.61965-48.42213,12.48092-6.06282,1.35788-12.21831,2.49116-18.41242,3.42688-3.69072-6.31318-7.80232-12.34899-12.29683-18.05595,1.88494-.29024,3.76923-.59335,5.62779-.93571,33.60841-6.07635,61.06197-12.7718,90.87476-23.92187,17.10731-6.39169,33.42371-13.58782,48.77801-21.52209,14.32656-7.40721,28.00701-15.60533,37.21997-25.81968,21.25881-23.55247,13.79886-56.77872-17.38468-77.45776-4.96815-3.29495-10.79415-6.66906-11.86179-11.08378-1.76588-7.34156,10.62297-12.46805,22.05037-13.49643,27.90147-2.49116,56.09253,8.50123,74.46569,23.09105,7.65688,22.07618,4.50738,46.07656-10.63648,65.51677Z"/>
    <path class="cls-1" d="M1144.17589,536.64265c-7.15685,9.5161-15.94765,18.06947-25.63491,25.96448-9.27861,7.56488-19.37387,14.52417-29.69373,21.12695-22.57743,14.45853-46.4722,27.54567-71.4346,39.17067-43.48036,20.27039-83.21723,32.42246-131.67927,43.37431-1.19892.27672-2.39849.54058-3.61092.79092-.6725.1448-1.35788.29024-2.04325.43504-1.10689.22395-2.24017.44791-3.36058.65899-.7774.15831-1.55544.30311-2.34636.43504-.22395.05277-.44791.09203-.67186.13193-3.01822-7.71032-6.61627-15.13039-10.74138-22.19523,6.1941-.93571,12.3496-2.069,18.41242-3.42688,17.22572-3.86127,33.10709-7.86799,48.42213-12.48092.03926-.01287.06564-.01287.09203-.02639,19.74327-5.93091,38.59072-12.8368,58.34686-21.68104,20.15192-9.01478,39.39451-19.11072,57.50382-30.1945,16.92262-10.35979,33.09422-21.78658,44.05955-35.87572,15.14386-19.44022,18.29336-43.4406,10.63648-65.51677-5.14062-14.82728-15.17025-28.78449-29.70725-39.92169-5.75971-4.41536-12.52078-8.92276-13.69396-14.93283-1.95058-9.97688,12.65271-17.19939,26.04291-18.7941,21.83929-2.58319,43.70432,3.01823,62.1695,12.8368,25.04156,36.92985,25.64778,84.60175-1.06764,120.12095Z"/>
    <path class="cls-1" d="M1279.61088,467.94933c-.22395,9.71367-2.24017,19.26903-5.65417,28.4949-5.08721,13.72039-13.28531,26.7155-23.3677,38.4454-16.85697,19.61204-39.48653,34.92649-61.74734,50.87419-5.24552,3.75637-10.67574,7.43359-16.27714,11.03165-1.01422.65899-2.04261,1.30447-3.07035,1.95059-1.8193,1.1468-3.67721,2.29295-5.53576,3.42688-.79091.48716-1.58119.97497-2.38562,1.44926-1.10689.6725-2.2273,1.3315-3.34771,1.99049-1.52842.90933-3.08386,1.80579-4.6393,2.7016-1.29159.75166-2.59605,1.50268-3.91403,2.22731-.54058.31662-1.09402.61973-1.6346.92284l-3.20227,1.7794c-1.83217,1.00136-3.67721,2.00336-5.53576,2.99184-1.30446.71176-2.62244,1.41001-3.95393,2.09538-.80379.43504-1.60821.85656-2.42487,1.26521-1.42352.73815-2.84704,1.47629-4.28342,2.20092-14.19464,7.20964-28.9691,13.99711-44.08658,20.35019-1.66034.69825-3.3342,1.39649-5.00805,2.08187-1.16031.48781-2.31997.9621-3.47964,1.42352-3.05747,1.25234-6.12846,2.47765-9.19945,3.67722-1.58183.61973-3.16302,1.23882-4.75772,1.84504-3.58518,1.38427-7.17036,2.7415-10.76777,4.05948-1.79291.6725-3.59869,1.3315-5.39096,1.97697-1.80514.65899-3.61092,1.30511-5.4167,1.93771-1.80578.64548-3.61157,1.27808-5.4167,1.89782-1.75301.61909-3.50602,1.21244-5.25904,1.81866-10.91256,3.71647-21.83864,7.20964-32.69908,10.46469-1.80578.54058-3.61092,1.08051-5.40319,1.60822-1.96409.57983-3.91467,1.1468-5.86525,1.70025-1.6346.47429-3.25569.93571-4.88964,1.39649-1.7794.50132-3.57167,1.002-5.35106,1.48981-1.7794.48716-3.55879.97497-5.32468,1.44991-1.72663.47429-3.43974.9222-5.1535,1.38362-2.63595.68538-5.24552,1.37075-7.85509,2.02974-1.66034.42152-3.32133.84369-4.9688,1.25234-1.64747.40801-3.29494.81666-4.9289,1.21244-1.5947.39514-3.19004.7774-4.77123,1.14615-6.5635,1.56832-13.04784,3.03174-19.42664,4.40249-2.84704.61909-5.65417,1.19892-8.44844,1.77876-9.67374,1.97697-19.05789,3.72999-28.09968,5.24618-1.44926.23682-2.89916.47429-4.3362.71176-1.80514-10.88686-4.73133-21.39145-8.63249-31.40759.22395-.0399.44791-.07916.67186-.13193.79091-.13193,1.56896-.27672,2.34636-.43504,1.12041-.21108,2.25369-.43504,3.36058-.65899.68537-.1448,1.37075-.29024,2.04325-.43504,1.21244-.25034,2.412-.51419,3.61092-.79092,48.46203-10.95185,88.1989-23.10392,131.67927-43.37431,24.9624-11.625,48.85717-24.71214,71.4346-39.17067,10.31986-6.60277,20.41513-13.56207,29.69373-21.12695,9.68726-7.89501,18.47806-16.44837,25.63491-25.96448,26.71541-35.5192,26.1092-83.1911,1.06764-120.12095-5.28542-7.80234-11.66422-15.13039-19.11066-21.75955-6.81448-6.06284-14.81437-12.27048-15.94765-20.36306-1.88494-13.43015,16.22437-22.78794,32.60641-24.6066,42.7287-4.74486,84.54872,18.66281,109.03619,48.07991,17.26562,20.73181,28.36289,45.29915,27.78305,70.07694Z"/>
    <path class="cls-1" d="M1279.61088,984.54504c.57983,24.76491-10.51743,49.33225-27.78305,70.06407-24.48747,29.4171-66.30749,52.82477-109.03619,48.07991-16.38204-1.81866-34.49135-11.16294-32.60641-24.6066,1.13328-8.07907,9.13317-14.30022,15.94765-20.34955,7.44644-6.6298,13.82524-13.95785,19.11066-21.77307,25.04156-36.92985,25.64778-84.60111-1.06764-120.10744-7.15685-9.5161-15.92126-18.06947-25.60852-25.95161,0-.01287-.01287-.01287-.02639-.01287-9.27861-7.56552-19.37387-14.52417-29.69373-21.12695-22.57743-14.45853-46.4722-27.55918-71.4346-39.18354-43.48036-20.27103-83.21723-32.40959-131.67927-43.37495-3.98032-.90933-7.99989-1.71312-12.04584-2.43839,3.91403-10.01678,6.82671-20.53424,8.63249-31.42046,3.13663.51419,6.32603,1.04126,9.55533,1.60758,1.19956.21108,2.412.42217,3.62444.64612,2.79427.50068,5.62779,1.02774,8.47482,1.56832,3.21579.61909,6.47083,1.25234,9.7529,1.9242.01287,0,.03926.01287.06564.01287,3.25569.65899,6.55063,1.35788,9.87195,2.06964,1.67386.35588,3.36058.72463,5.04795,1.1069,5.50873,1.22595,11.11013,2.51755,16.7643,3.87479,1.25234.30311,2.51754.60622,3.78275.92284,1.02774.25034,2.05612.50068,3.08386.76453,1.64747.40865,3.29494.83017,4.95593,1.2517,6.06282,1.54193,12.19129,3.16367,18.359,4.86392,1.7794.48716,3.57231.98849,5.35106,1.48916,14.02345,3.95394,28.23096,8.29015,42.43911,13.0215,1.71311.56696,3.42687,1.1468,5.13998,1.72663,4.04596,1.37075,8.09256,2.76789,12.13851,4.20428,1.7395.61909,3.47964,1.23882,5.21914,1.87143,1.80578.64612,3.61157,1.30511,5.40383,1.97697.97561.35588,1.93707.72463,2.91268,1.08116,1.68737.63196,3.3741,1.26521,5.06082,1.91069,5.6014,2.13528,11.18993,4.33621,16.73856,6.5899,1.15967.46142,2.31933.93571,3.47964,1.42352,1.67386.68538,3.34771,1.38362,5.00805,2.08251,9.97685,4.19077,19.82242,8.57975,29.44404,13.15342,1.5947.76453,3.20227,1.52906,4.7841,2.30647,1.56832.75102,3.12376,1.51555,4.67856,2.29295,1.70024.84369,3.38761,1.68738,5.07434,2.54393,1.46277.73815,2.92619,1.48916,4.38897,2.2537.80379.40865,1.62109.83017,2.42487,1.26521,1.23882.64612,2.47764,1.30511,3.70359,1.95059,2.06899,1.10754,4.12511,2.22731,6.16772,3.34772.94923.51419,1.88494,1.04126,2.82065,1.56832.54058.30311,1.09402.60622,1.6346.92284,1.31798.72463,2.62244,1.47629,3.91403,2.22731,1.55544.89646,3.11089,1.79227,4.6393,2.7016.93571.55409,1.87142,1.10754,2.79427,1.66099,1.00135.59271,1.98984,1.19957,2.97832,1.80579,1.76653,1.067,3.51954,2.14815,5.24617,3.25505,1.15967.71176,2.30646,1.44991,3.45261,2.18805,3.09737,1.97697,6.14198,3.9932,9.12094,6.02294,1.04125.71176,2.06899,1.42352,3.08386,2.13528,1.31798.9222,2.63595,1.84504,3.94042,2.78076,22.26081,15.96121,44.89037,31.27566,61.74734,50.87419,10.08239,11.71703,18.26762,24.72565,23.35483,38.4454h.01287c3.414,9.23938,5.43022,18.79474,5.65417,28.50777Z"/>
  </g>
  <path class="cls-1" d="M884.46818,726.24719c0,8.89637-.73814,17.60869-2.14815,26.09641-1.80578,10.88621-4.71846,21.40367-8.63249,31.42046-3.00535,7.71032-6.6034,15.11752-10.74203,22.18172-3.66369,6.31318-7.77593,12.33612-12.2698,18.05595-7.80296,9.91188-16.75143,18.8739-26.66329,26.66337-5.7063,4.49388-11.74274,8.60613-18.0559,12.29622-7.06418,4.13864-14.48487,7.7367-22.19517,10.74206-10.01611,3.91404-20.52067,6.82673-31.40685,8.63252h-.01351c-8.48769,1.41001-17.21285,2.14815-26.09568,2.14815-8.89634,0-17.60863-.73815-26.09568-2.16167-10.88682-1.79227-21.40425-4.70496-31.421-8.63252-7.71029-2.99184-15.11748-6.5899-22.18165-10.72854-6.31316-3.67657-12.33608-7.78883-18.0559-12.28335-9.91121-7.80234-18.87384-16.76436-26.67616-26.67624-4.49451-5.71983-8.60611-11.74277-12.28331-18.05595-4.13863-7.0642-7.73668-14.4714-10.72851-22.18172-3.92755-10.01678-6.84022-20.53424-8.63249-31.42046-1.42352-8.48772-2.16166-17.20004-2.16166-26.09641s.73814-17.60804,2.13528-26.10863c1.81865-10.88686,4.73133-21.39145,8.63249-31.40759,3.01822-7.71032,6.61627-15.13039,10.7549-22.19523,3.67721-6.31318,7.78881-12.33612,12.29683-18.05595,5.65353-7.19612,11.92743-13.89157,18.74127-19.99367,2.57031-2.31998,5.20627-4.54729,7.92138-6.68257,3.63731-2.87279,7.42005-5.57503,11.30834-8.10545.21044-.1448.40801-.27672.63196-.40865,2.00399-1.30447,4.0466-2.57032,6.11559-3.76924,6.01005-3.51891,12.28396-6.64267,18.75478-9.33141.69889-.30311,1.39713-.60622,2.10889-.88294.05277-.01351.10554-.0399.1448-.05277.39578-.15831.77804-.30311,1.17318-.44791,9.92408-3.8883,20.33661-6.78812,31.11725-8.59326.10554-.01351.1847-.0399.29024-.05277h.01351c8.48705-1.41065,17.19934-2.14815,26.09568-2.14815,8.88283,0,17.60799.7375,26.09568,2.16103.09267.01351.19821.02639.29024.0399,10.78128,1.80514,21.20604,4.70496,31.13012,8.59326.39578.1448.77804.2896,1.16031.44791.03926.01287.09203.03926.1448.07916.71176.25034,1.42352.55345,2.12176.85656,6.48499,2.7016,12.75825,5.82537,18.7683,9.34428,2.05612,1.21308,4.08586,2.46478,6.08921,3.75637.22395.13193.43439.26385.64547.40865,3.90116,2.54393,7.67104,5.25841,11.32121,8.13184,2.71511,2.13528,5.35106,4.34972,7.90786,6.66906,6.80097,6.1021,13.07487,12.78467,18.74191,19.9808,4.49451,5.70696,8.60611,11.74277,12.29683,18.05595,4.12511,7.06484,7.72316,14.48492,10.74138,22.19523,3.90116,10.01614,6.82735,20.52073,8.63249,31.40759v.01287c1.39713,8.48772,2.13528,17.21291,2.13528,26.09576Z"/>
</svg>